<svg xmlns="http://www.w3.org/2000/svg" viewBox="0 0 641.36 892.88"><defs><style>.cls-1{fill:#bc0606;}.cls-2{fill:#ff3b3b;}.cls-3{fill:#fff;}</style></defs><g id="Layer_2" data-name="Layer 2"><g id="Layer_1-2" data-name="Layer 1"><path class="cls-1" d="M641.17,295.48c-2.5-72.59-32.78-132.39-81.18-185.55C469.45,10.5,334-26.94,208.6,20.27,86.91,66.1,16.2,154.91,2.19,285.76-7.28,374.13,14.62,455.9,56.13,533.42,104.28,623.34,167,703.17,228.91,783.54c28.36,36.83,59.56,71.47,91.34,109.34,5.64-6.93,8.92-10.82,12.06-14.82C377.52,820.46,424.1,763.88,467.55,705c58.25-79,110.8-161.56,145.31-254.27C631.51,400.64,643,349.27,641.17,295.48ZM318.48,491.26c-88.7-.34-157.83-71.7-157.43-162.52.38-87.44,72-160.31,157.38-160.12,86,.19,158.73,74.61,158.19,161.79C476.07,419.53,405.23,491.59,318.48,491.26Z"/><path class="cls-2" d="M318.22,87.14c-128.49-.28-236.28,109.39-236.86,241C80.76,464.82,184.8,572.22,318.3,572.74c130.56.5,237.18-108,238-242.09C557.12,199.43,447.61,87.43,318.22,87.14Zm.26,404.12c-88.7-.34-157.83-71.7-157.43-162.52.38-87.44,72-160.31,157.38-160.12,86,.19,158.73,74.61,158.19,161.79C476.07,419.53,405.23,491.59,318.48,491.26Z"/><path class="cls-3" d="M476.62,330.41c-.55,89.12-71.39,161.18-158.14,160.85-88.7-.34-157.83-71.7-157.43-162.52.38-87.44,72-160.31,157.38-160.12C404.39,168.81,477.16,243.23,476.62,330.41Z"/></g></g></svg>