<svg xmlns="http://www.w3.org/2000/svg" xmlns:xlink="http://www.w3.org/1999/xlink" viewBox="0 0 660.72 1169.36"><defs><style>.cls-1{fill:url(#linear-gradient);}.cls-2{fill:#038103;}.cls-3{fill:#a2a08a;}.cls-4{fill:#ff3b3b;}.cls-5{fill:url(#linear-gradient-2);}.cls-6{fill:url(#linear-gradient-3);}.cls-7{fill:url(#linear-gradient-4);}.cls-8{fill:url(#linear-gradient-5);}.cls-9{fill:url(#linear-gradient-6);}.cls-10{fill:url(#linear-gradient-7);}.cls-11{fill:url(#linear-gradient-8);}</style><linearGradient id="linear-gradient" x1="172.51" y1="1051.29" x2="264.49" y2="1051.29" gradientUnits="userSpaceOnUse"><stop offset="0" stop-color="#038103"/><stop offset="1" stop-color="#2bb673"/></linearGradient><linearGradient id="linear-gradient-2" x1="332.2" y1="938.05" x2="519.83" y2="1125.68" xlink:href="#linear-gradient"/><linearGradient id="linear-gradient-3" x1="24.19" y1="1019.94" x2="201.62" y2="842.51" gradientUnits="userSpaceOnUse"><stop offset="0" stop-color="#2bb673"/><stop offset="1" stop-color="#038103"/></linearGradient><linearGradient id="linear-gradient-4" x1="131.71" y1="800.86" x2="287.89" y2="644.68" xlink:href="#linear-gradient-3"/><linearGradient id="linear-gradient-5" x1="277.24" y1="661.12" x2="463.45" y2="474.91" xlink:href="#linear-gradient-3"/><linearGradient id="linear-gradient-6" x1="286.77" y1="101.49" x2="579.71" y2="394.43" gradientUnits="userSpaceOnUse"><stop offset="0" stop-color="#2bb673"/><stop offset="0.06" stop-color="#26af65"/><stop offset="0.25" stop-color="#199f42"/><stop offset="0.43" stop-color="#109226"/><stop offset="0.62" stop-color="#098813"/><stop offset="0.81" stop-color="#048307"/><stop offset="1" stop-color="#038103"/></linearGradient><linearGradient id="linear-gradient-7" x1="57.01" y1="629.33" x2="651.01" y2="629.33" gradientUnits="userSpaceOnUse"><stop offset="0" stop-color="#e01212"/><stop offset="1" stop-color="#940000"/></linearGradient><linearGradient id="linear-gradient-8" x1="132.36" y1="556.78" x2="572.23" y2="556.78" gradientUnits="userSpaceOnUse"><stop offset="0" stop-color="#b10000"/><stop offset="1" stop-color="#ff2b00"/></linearGradient></defs><g id="Layer_2" data-name="Layer 2"><g id="Layer_1-2" data-name="Layer 1"><path class="cls-1" d="M226.86,933.22l37.63,49a138.78,138.78,0,0,0-14.62,13.67c-10.2,11-17.4,24.36-23.31,38.1-11.24,26.19-19.53,55.49-18.81,84.26a.16.16,0,0,0-.14,0c0,1.25,0,2.54.14,3.83a147.32,147.32,0,0,0,5.9,34.43,10.74,10.74,0,0,1,.41,3,9.79,9.79,0,0,1-4.65,8.41,9.92,9.92,0,0,1-13.53-3.12,146.3,146.3,0,0,1-7.74-13.74c-20.89-41.4-18.26-92.72-7.1-136.53A182,182,0,0,1,226.86,933.22Z"/><path class="cls-2" d="M400.71,856.28l-6,79c-35.21,1.23-75.31,12.36-82.83,14.64A139.88,139.88,0,0,0,272,969.39l-38.43-50a186.78,186.78,0,0,1,19.27-15.74q7.86-5.59,16.22-10.47c1.25-.73,14.19-6.88,14.19-7.62,0,.11,0,.2,0,.3v-.33C310.47,872.47,366.58,858.86,400.71,856.28Z"/><path class="cls-3" d="M592.65,499.65l.25.06c.14-.29.26-.55.39-.84l-.64.78Z"/><g id="Layer_2-2" data-name="Layer 2"><g id="Layer_1-2-2" data-name="Layer 1-2"><path class="cls-4" d="M559.27,471.08c-2.11-5.91-4.48-11.73-7.07-17.41a231.71,231.71,0,0,0-64.59-83.34q-6.25-5.08-12.87-9.73a225.91,225.91,0,0,0-29.88-17.69,285.41,285.41,0,0,1-24.21,61c-1.5,2.78-3,5.51-4.64,8.16q4.15,2.13,8.14,4.51l.84.49v0a145.22,145.22,0,0,1,13.54,9.2h0a154.1,154.1,0,0,1,15.13,13.2l1.26,1.26a151.2,151.2,0,0,1,41.63,81.43,142.31,142.31,0,0,1,1.86,22.43c0,.52,0,1,0,1.59-.49,79.92-62,145-138.85,148.78q-3.48.18-7,.18H352q-7.26,0-14.32-.74a144.11,144.11,0,0,1-113.3-75.62,149.36,149.36,0,0,1-7.06-15.09,155.77,155.77,0,0,1-11.12-59.07,149.88,149.88,0,0,1,37.31-98q-3.3-3.22-6.49-6.74a185.23,185.23,0,0,1-15-18.83,236,236,0,0,1-21.11-37.65c-41.82,40.83-68.29,98.1-68.57,160.71A232.75,232.75,0,0,0,158,652.43c2.51,4.86,5.2,9.63,8.06,14.26a217.05,217.05,0,0,0,109.42,90.25q8.47,3.15,17.29,5.6a222.64,222.64,0,0,0,59,8.11c120.93.46,219.67-100,220.43-224.21A218.43,218.43,0,0,0,559.27,471.08Z"/></g></g><path class="cls-5" d="M486.29,1105.07a547.47,547.47,0,0,1-75.18,14c-42.6,4.92-84.93,5-127.23,2-4.79-.37-9.62-.8-14.41-1.26-20.35-1.91-25.85-2.9-46.29-6.82,0-16.45,4.38-75.06,47.58-113.15,5.19.94,10.4,1.8,15.64,2.62l.31,0c3.08.46,6.12,1,9.2,1.33l4.27.57q6.75.89,13.52,1.61a596,596,0,0,0,66.55,3.44c2.51,0,5,0,7.52-.06,2.66,0,5.31-.1,8-.19l4.2-.15q6.19-.22,12.38-.61a405.85,405.85,0,0,0,50.12-6.15A270.82,270.82,0,0,0,500,992.58a152.79,152.79,0,0,0,17.57-7.14c5-2.39,10.14-4.93,13.18-9.79,4.63-7.36,2.94-16.78-2.32-23.32a25.29,25.29,0,0,0-4.59-4.42c9,9.92,2.76,21.28-4.12,24.65-.5-.49-1-1-1.66-1.54-6.33-5.57-15-10.94-24.23-15.44a141.32,141.32,0,0,0-26.53-10.31C479,930.26,486,920,497.21,904.82c7-9.52,17.64-23.79,24.1-33,3.57,1.21,3.55,1.28,7.1,2.67,42.21,16.27,85,47,94.3,94.12A82.47,82.47,0,0,1,624,981.18C626.09,1054.41,545.48,1089.71,486.29,1105.07Z"/><path class="cls-6" d="M135.24,951.08a65.4,65.4,0,0,0,3.12,27,45.7,45.7,0,0,0,8.52,14.8,32.58,32.58,0,0,0,3.45,3.4c.36.31,1.11.67,1.38,1.08a52.49,52.49,0,0,1-7.43-42.29c7.85,8.42,22.16,13.1,30,16.6-9.8,27.28-20.87,76.44-14.28,128.06-13.17-3.42-15.06-4.41-28.39-9.29a313.34,313.34,0,0,1-52.49-24.52,209.8,209.8,0,0,1-27.1-19C8,1010.32-7.12,955.29,3,899.85,14.31,838.25,50.25,782.41,93.8,734.7c.93,1.79,2,3.73,3.14,6,20.33,38,44.52,76.31,76.13,120.6.81,1.12,1.6,2.25,2.42,3.38a353.92,353.92,0,0,0-26.16,40.26,120.67,120.67,0,0,0-7.72,16.49A110.57,110.57,0,0,0,135.24,951.08Z"/><path class="cls-7" d="M337.65,694.44l-8.19,8.38q-26.74,27.28-54,54.12-3.59,3.57-7.21,7.12c-26.69,26.26-54,52.76-78,81.75q-3.1,3.74-6.12,7.52c-27.25-38.18-52.92-77.46-75.2-119.09-1.8-3.38-3.57-6.75-5.28-10.14q3.39-3.55,6.86-7.05a743.57,743.57,0,0,1,55.49-50.36l1.25-1q24.91-20.43,49.72-40.8l7.32-6A144.11,144.11,0,0,0,337.65,694.44Z"/><path class="cls-8" d="M483.55,536.93c-1,1.19-50.41,55.81-77.74,85.56q-27.42,29.87-55.62,59c-3.78,0-7.51-.28-11.15-.65a131.06,131.06,0,0,1-102.67-68.52c-.43-.79-.85-1.6-1.27-2.41C305,551.76,425.51,440,425.93,439.56c10.91,9.47,26.12,21.14,37.69,39.81C476.14,499.58,480,522,483.55,536.93Z"/><path class="cls-9" d="M660.24,210c-3,44.45-16.63,88.6-36.6,129.43-.14.32-.31.66-.47,1-.26.51-.51,1-.77,1.56-4.36,8.75-6,12.06-10.8,20.59a350.34,350.34,0,0,0-25.66-31.69c-14.41-15.83-33.08-27.75-49.75-40.24,42.7-86.53,40.15-159.93-22.31-186.58a114.45,114.45,0,0,0-27.38-8c-1.76-.27-3.51-.5-5.26-.68A99.73,99.73,0,0,0,471,94.87a97,97,0,0,0-31.57,5.26c-1.12.39-2.23.78-3.33,1.2s-2.18.87-3.26,1.32a101.76,101.76,0,0,0-18,9.92q-1.84,1.26-3.62,2.6-2.65,2-5.13,4.14l-1.64,1.42q-1.61,1.45-3.14,2.94c-22.15,21.57-31.45,50.11-20.52,66.63,14.28,21.58,29.06,34.86,40,48.62a95.67,95.67,0,0,1,8.08,11.65,66.2,66.2,0,0,1,5.09,10.86c.7,1.92,1.3,3.9,1.83,6,3.68,14.58,1.65,40.52-5.79,68.86a272.21,272.21,0,0,1-24,61c-1.54,2.78-3.13,5.53-4.77,8.22s-3.36,5.37-5.12,8c-19.59,28.9-45.88,50.14-78.39,50.14-20.94,0-39.71-8.54-55.9-22.17q-3.6-3-7.05-6.4c-2.21-2.15-4.34-4.39-6.44-6.73-14.31-15.93-26-35.78-34.76-56.32-11.32-26.61-17.62-54.38-18-76.29a106.42,106.42,0,0,1,.33-11,67.66,67.66,0,0,1,2-11.83c.36-1.34.77-2.62,1.21-3.84,17.79-48,65.77-78.16,75.47-101.34S316.57,0,462.13,0,666.72,113.75,660.24,210Z"/><path class="cls-10" d="M650.84,513.86c-1.58-45.54-14.94-85.63-37.35-122.07q-4.66-7.62-9.88-15a349.12,349.12,0,0,0-28-34.74,324.77,324.77,0,0,0-44.13-40.39q-6.51-5-13.24-9.5a303.3,303.3,0,0,0-68.81-35c.71,2,1.33,4.15,1.89,6.33.35,1.37.66,2.81.92,4.31,3.21,18.12.59,45.52-7.28,74.64-.05.17-.09.36-.14.53a285.41,285.41,0,0,1-24.21,61c-1.5,2.78-3,5.51-4.64,8.16q4.15,2.13,8.14,4.51l.84.49v0a145.22,145.22,0,0,1,13.54,9.2h0a154.1,154.1,0,0,1,15.13,13.2l1.26,1.26a151.2,151.2,0,0,1,41.63,81.43,142.31,142.31,0,0,1,1.86,22.43c0,.52,0,1,0,1.59-.49,79.92-62,145-138.85,148.78q-3.48.18-7,.18H352q-7.26,0-14.32-.74a144.11,144.11,0,0,1-113.3-75.62,149.36,149.36,0,0,1-7.06-15.09,155.77,155.77,0,0,1-11.12-59.07,149.88,149.88,0,0,1,37.31-98q-3.3-3.22-6.49-6.74a185.23,185.23,0,0,1-15-18.83,236,236,0,0,1-21.11-37.65c-11.6-25.75-19.06-53.43-21-77.49-.31-3.74-.49-7.39-.51-10.92C109.91,341.72,69,411.82,59,504.86c-7.74,72.21,7.12,139.65,37.13,203.83q3.63,7.74,7.54,15.41c1.71,3.39,3.48,6.76,5.28,10.14,22.28,41.63,48,80.91,75.2,119.09q4.88,6.84,9.83,13.63,19.35,26.56,39.39,52.62Q251.14,942.8,269,965.89q1.39,1.82,2.82,3.62c.83,1.08,1.67,2.16,2.53,3.24q1.8,2.31,3.65,4.62c3.37,4.25,6.8,8.47,10.25,12.68l2,2.47,2.08,2.52c-.66,2.13,110.11,10.83,115.62,3.84,0,0,5.41-6.72,12.11-15.18,2.64-3.33,5.29-6.64,7.9-10s5.27-6.65,7.89-10,5.24-6.65,7.85-10,5.13-6.54,7.68-9.81l1.9-2.45c.83-1.07,1.67-2.13,2.48-3.21,1.92-2.46,3.81-4.92,5.7-7.38.86-1.09,1.69-2.18,2.52-3.27,1.8-2.32,3.57-4.66,5.35-7,1.38-1.79,2.73-3.57,4.08-5.37,1.78-2.32,3.54-4.66,5.28-7q5.68-7.54,11.29-15.14,5.14-7,10.2-14,3-4.17,6-8.36l2.23-3.12,1.53-2.16c1.65-2.32,3.27-4.65,4.9-7s3.25-4.65,4.85-7c1.44-2.08,2.88-4.16,4.31-6.26q7.17-10.49,14.11-21.1c1.38-2.09,2.74-4.19,4.1-6.3.88-1.37,1.76-2.73,2.63-4.1s1.57-2.47,2.37-3.71q4-6.27,7.87-12.61l2.69-4.39q2.76-4.54,5.47-9.12c.87-1.47,1.74-2.93,2.6-4.4q5.83-10,11.44-20.05c.87-1.58,1.74-3.15,2.58-4.73.37-.66.73-1.33,1.09-2,1.07-2,2.12-3.92,3.17-5.89,0-.05.06-.1.08-.16,1-1.88,2-3.75,3-5.64.48-.92,1-1.83,1.43-2.75.69-1.32,1.38-2.65,2.05-4q7.13-14,13.7-28.24c.51-1.08,1-2.16,1.47-3.24.79-1.69,1.54-3.37,2.29-5.07.38-.84.74-1.67,1.1-2.5.62-1.38,1.23-2.75,1.81-4.14.46-1,.92-2.09,1.36-3.13.77-1.79,1.52-3.58,2.27-5.38.31-.74.62-1.47.92-2.2q1-2.49,2-5c.36-.86.7-1.7,1-2.56.62-1.51,1.22-3,1.8-4.57.5-1.21,1-2.44,1.44-3.67.92-2.36,1.81-4.73,2.69-7.1C641.89,611.26,652.53,563.68,650.84,513.86Z"/><g id="Layer_2-3" data-name="Layer 2"><g id="Layer_1-2-3" data-name="Layer 1-2"><path class="cls-11" d="M559.27,471.08c-2.11-5.91-4.48-11.73-7.07-17.41a231.71,231.71,0,0,0-64.59-83.34q-6.25-5.08-12.87-9.73a225.91,225.91,0,0,0-29.88-17.69,285.41,285.41,0,0,1-24.21,61c-1.5,2.78-3,5.51-4.64,8.16q4.15,2.13,8.14,4.51l.84.49v0a145.22,145.22,0,0,1,13.54,9.2h0a154.1,154.1,0,0,1,15.13,13.2l1.26,1.26a151.2,151.2,0,0,1,41.63,81.43,142.31,142.31,0,0,1,1.86,22.43c0,.52,0,1,0,1.59-.49,79.92-62,145-138.85,148.78q-3.48.18-7,.18H352q-7.26,0-14.32-.74a144.11,144.11,0,0,1-113.3-75.62,149.36,149.36,0,0,1-7.06-15.09,155.77,155.77,0,0,1-11.12-59.07,149.88,149.88,0,0,1,37.31-98q-3.3-3.22-6.49-6.74a185.23,185.23,0,0,1-15-18.83,236,236,0,0,1-21.11-37.65c-41.82,40.83-68.29,98.1-68.57,160.71A232.75,232.75,0,0,0,158,652.43c2.51,4.86,5.2,9.63,8.06,14.26a217.05,217.05,0,0,0,109.42,90.25q8.47,3.15,17.29,5.6a222.64,222.64,0,0,0,59,8.11c120.93.46,219.67-100,220.43-224.21A218.43,218.43,0,0,0,559.27,471.08Z"/></g></g></g></g></svg>